<?xml version="1.0" encoding="UTF-8"?>
<svg xmlns="http://www.w3.org/2000/svg" version="1.1" width="80" height="80" viewBox="0 0 80 80"><rect x="0" y="0" width="80" height="80" fill="#ffffff"/><g transform="scale(2.581)"><g transform="translate(1,1)"><path fill-rule="evenodd" d="M8 0L8 1L9 1L9 2L8 2L8 5L9 5L9 6L8 6L8 7L9 7L9 8L8 8L8 9L7 9L7 8L6 8L6 9L4 9L4 8L0 8L0 10L1 10L1 11L0 11L0 12L2 12L2 9L3 9L3 11L5 11L5 12L6 12L6 13L7 13L7 12L8 12L8 14L9 14L9 13L10 13L10 14L11 14L11 13L13 13L13 14L12 14L12 15L10 15L10 16L8 16L8 15L7 15L7 14L6 14L6 15L7 15L7 16L5 16L5 14L3 14L3 13L4 13L4 12L3 12L3 13L2 13L2 15L1 15L1 13L0 13L0 15L1 15L1 16L2 16L2 15L3 15L3 17L1 17L1 18L0 18L0 19L1 19L1 18L2 18L2 20L1 20L1 21L2 21L2 20L4 20L4 18L3 18L3 17L4 17L4 16L5 16L5 17L7 17L7 18L6 18L6 19L5 19L5 20L6 20L6 21L8 21L8 22L9 22L9 25L8 25L8 29L11 29L11 28L10 28L10 26L11 26L11 25L12 25L12 26L13 26L13 25L14 25L14 26L16 26L16 27L14 27L14 28L13 28L13 27L12 27L12 28L13 28L13 29L14 29L14 28L16 28L16 29L17 29L17 28L16 28L16 27L17 27L17 24L14 24L14 23L15 23L15 20L16 20L16 23L18 23L18 24L19 24L19 23L20 23L20 25L18 25L18 29L21 29L21 27L22 27L22 28L23 28L23 27L24 27L24 29L28 29L28 27L29 27L29 25L28 25L28 21L29 21L29 19L28 19L28 17L29 17L29 14L28 14L28 13L29 13L29 11L28 11L28 10L29 10L29 8L28 8L28 10L27 10L27 8L24 8L24 9L22 9L22 8L21 8L21 9L20 9L20 7L21 7L21 5L20 5L20 2L19 2L19 1L21 1L21 0L16 0L16 1L18 1L18 3L16 3L16 5L17 5L17 4L18 4L18 3L19 3L19 6L18 6L18 7L17 7L17 6L16 6L16 7L15 7L15 3L14 3L14 2L15 2L15 0L14 0L14 2L12 2L12 0L11 0L11 1L10 1L10 0ZM9 2L9 3L10 3L10 6L9 6L9 7L10 7L10 8L9 8L9 9L10 9L10 10L9 10L9 11L8 11L8 10L7 10L7 9L6 9L6 10L5 10L5 11L6 11L6 12L7 12L7 11L8 11L8 12L10 12L10 13L11 13L11 9L12 9L12 11L13 11L13 10L14 10L14 13L17 13L17 12L18 12L18 13L20 13L20 15L19 15L19 14L18 14L18 15L17 15L17 16L16 16L16 20L17 20L17 17L18 17L18 19L20 19L20 20L19 20L19 22L20 22L20 20L21 20L21 19L20 19L20 17L18 17L18 15L19 15L19 16L20 16L20 15L21 15L21 16L22 16L22 19L24 19L24 18L26 18L26 19L27 19L27 18L26 18L26 17L28 17L28 16L27 16L27 14L26 14L26 12L27 12L27 13L28 13L28 11L26 11L26 9L25 9L25 10L24 10L24 12L23 12L23 11L22 11L22 12L18 12L18 11L17 11L17 12L16 12L16 8L17 8L17 7L16 7L16 8L15 8L15 9L14 9L14 6L13 6L13 5L14 5L14 4L13 4L13 5L12 5L12 2L11 2L11 3L10 3L10 2ZM10 6L10 7L11 7L11 8L12 8L12 9L13 9L13 8L12 8L12 7L13 7L13 6L12 6L12 7L11 7L11 6ZM19 6L19 7L18 7L18 8L19 8L19 7L20 7L20 6ZM17 9L17 10L18 10L18 9ZM6 10L6 11L7 11L7 10ZM19 10L19 11L21 11L21 10ZM22 13L22 16L24 16L24 17L23 17L23 18L24 18L24 17L25 17L25 16L26 16L26 15L23 15L23 13ZM13 14L13 15L12 15L12 16L11 16L11 17L13 17L13 16L14 16L14 18L13 18L13 21L12 21L12 18L11 18L11 19L10 19L10 17L9 17L9 19L8 19L8 21L9 21L9 22L11 22L11 21L12 21L12 22L14 22L14 20L15 20L15 16L14 16L14 14ZM15 14L15 15L16 15L16 14ZM7 16L7 17L8 17L8 16ZM6 19L6 20L7 20L7 19ZM10 20L10 21L11 21L11 20ZM25 20L25 24L27 24L27 23L26 23L26 22L27 22L27 21L28 21L28 20L27 20L27 21L26 21L26 20ZM17 21L17 22L18 22L18 21ZM21 21L21 24L24 24L24 21ZM22 22L22 23L23 23L23 22ZM10 23L10 24L13 24L13 23ZM20 25L20 27L19 27L19 28L20 28L20 27L21 27L21 25ZM22 25L22 26L23 26L23 25ZM25 25L25 26L24 26L24 27L25 27L25 26L26 26L26 28L27 28L27 27L28 27L28 26L26 26L26 25ZM0 0L0 7L7 7L7 0ZM1 1L1 6L6 6L6 1ZM2 2L2 5L5 5L5 2ZM22 0L22 7L29 7L29 0ZM23 1L23 6L28 6L28 1ZM24 2L24 5L27 5L27 2ZM0 22L0 29L7 29L7 22ZM1 23L1 28L6 28L6 23ZM2 24L2 27L5 27L5 24Z" fill="#000000"/></g></g></svg>
