<?xml version="1.0" encoding="UTF-8"?>
<svg xmlns="http://www.w3.org/2000/svg" version="1.1" width="80" height="80" viewBox="0 0 80 80"><rect x="0" y="0" width="80" height="80" fill="#ffffff"/><g transform="scale(2.963)"><g transform="translate(1,1)"><path fill-rule="evenodd" d="M11 0L11 2L12 2L12 3L11 3L11 5L10 5L10 3L9 3L9 1L8 1L8 3L9 3L9 4L8 4L8 8L6 8L6 9L8 9L8 8L9 8L9 5L10 5L10 8L11 8L11 5L12 5L12 9L13 9L13 11L9 11L9 12L10 12L10 13L9 13L9 14L4 14L4 15L7 15L7 16L5 16L5 17L7 17L7 16L12 16L12 17L11 17L11 18L10 18L10 17L8 17L8 19L9 19L9 18L10 18L10 19L11 19L11 21L10 21L10 20L9 20L9 21L8 21L8 22L10 22L10 23L8 23L8 25L12 25L12 23L13 23L13 25L14 25L14 23L15 23L15 25L17 25L17 21L19 21L19 22L20 22L20 23L21 23L21 24L22 24L22 23L21 23L21 21L22 21L22 20L25 20L25 16L24 16L24 15L25 15L25 12L24 12L24 11L25 11L25 9L24 9L24 8L22 8L22 9L21 9L21 8L18 8L18 11L17 11L17 16L16 16L16 15L15 15L15 14L14 14L14 12L15 12L15 11L14 11L14 10L15 10L15 8L16 8L16 10L17 10L17 8L16 8L16 7L17 7L17 6L16 6L16 4L15 4L15 3L16 3L16 0L14 0L14 1L15 1L15 2L14 2L14 4L13 4L13 2L12 2L12 1L13 1L13 0ZM14 4L14 6L13 6L13 8L14 8L14 6L15 6L15 7L16 7L16 6L15 6L15 4ZM0 8L0 9L2 9L2 8ZM3 8L3 10L2 10L2 11L0 11L0 13L1 13L1 12L2 12L2 11L3 11L3 12L4 12L4 13L7 13L7 12L6 12L6 11L7 11L7 10L6 10L6 11L5 11L5 9L4 9L4 8ZM9 9L9 10L10 10L10 9ZM19 9L19 11L20 11L20 10L21 10L21 12L19 12L19 13L20 13L20 14L18 14L18 16L21 16L21 20L22 20L22 19L23 19L23 18L22 18L22 16L23 16L23 17L24 17L24 16L23 16L23 15L24 15L24 14L23 14L23 15L21 15L21 14L22 14L22 13L24 13L24 12L23 12L23 11L22 11L22 10L24 10L24 9L22 9L22 10L21 10L21 9ZM2 13L2 14L3 14L3 13ZM10 13L10 15L11 15L11 14L12 14L12 13ZM0 14L0 15L1 15L1 16L0 16L0 17L4 17L4 16L2 16L2 15L1 15L1 14ZM13 16L13 17L14 17L14 18L15 18L15 17L16 17L16 16ZM17 17L17 20L20 20L20 17ZM11 18L11 19L12 19L12 20L15 20L15 21L13 21L13 22L16 22L16 19L13 19L13 18ZM18 18L18 19L19 19L19 18ZM11 21L11 23L10 23L10 24L11 24L11 23L12 23L12 21ZM24 22L24 23L25 23L25 22ZM19 24L19 25L20 25L20 24ZM23 24L23 25L25 25L25 24ZM0 0L0 7L7 7L7 0ZM1 1L1 6L6 6L6 1ZM2 2L2 5L5 5L5 2ZM18 0L18 7L25 7L25 0ZM19 1L19 6L24 6L24 1ZM20 2L20 5L23 5L23 2ZM0 18L0 25L7 25L7 18ZM1 19L1 24L6 24L6 19ZM2 20L2 23L5 23L5 20Z" fill="#000000"/></g></g></svg>
