<?xml version="1.0" encoding="UTF-8"?>
<svg xmlns="http://www.w3.org/2000/svg" version="1.1" width="80" height="80" viewBox="0 0 80 80"><rect x="0" y="0" width="80" height="80" fill="#ffffff"/><g transform="scale(2.286)"><g transform="translate(1,1)"><path fill-rule="evenodd" d="M9 0L9 1L8 1L8 2L9 2L9 3L8 3L8 4L10 4L10 7L11 7L11 4L12 4L12 5L13 5L13 6L12 6L12 9L13 9L13 8L14 8L14 9L15 9L15 8L14 8L14 7L15 7L15 6L16 6L16 8L17 8L17 9L18 9L18 10L21 10L21 9L18 9L18 8L20 8L20 7L21 7L21 8L23 8L23 5L24 5L24 4L23 4L23 3L25 3L25 1L24 1L24 0L23 0L23 1L22 1L22 2L21 2L21 0L18 0L18 2L19 2L19 5L14 5L14 4L12 4L12 2L13 2L13 1L11 1L11 2L10 2L10 0ZM14 0L14 1L15 1L15 2L14 2L14 3L15 3L15 4L18 4L18 3L15 3L15 2L17 2L17 1L15 1L15 0ZM19 1L19 2L20 2L20 1ZM23 1L23 2L24 2L24 1ZM10 3L10 4L11 4L11 3ZM20 3L20 4L22 4L22 5L23 5L23 4L22 4L22 3ZM8 5L8 7L9 7L9 5ZM19 5L19 7L20 7L20 6L21 6L21 7L22 7L22 6L21 6L21 5ZM13 6L13 7L14 7L14 6ZM17 6L17 8L18 8L18 6ZM24 6L24 7L25 7L25 6ZM0 8L0 10L1 10L1 11L0 11L0 15L1 15L1 14L2 14L2 16L1 16L1 18L2 18L2 20L3 20L3 21L2 21L2 23L3 23L3 22L6 22L6 23L8 23L8 19L9 19L9 18L10 18L10 19L11 19L11 21L10 21L10 20L9 20L9 22L10 22L10 23L11 23L11 21L12 21L12 22L13 22L13 23L12 23L12 25L13 25L13 24L14 24L14 25L15 25L15 24L14 24L14 23L16 23L16 22L17 22L17 21L18 21L18 20L17 20L17 21L16 21L16 19L17 19L17 17L18 17L18 19L19 19L19 18L20 18L20 19L21 19L21 20L22 20L22 21L19 21L19 22L24 22L24 21L26 21L26 22L25 22L25 24L24 24L24 23L23 23L23 24L22 24L22 23L20 23L20 24L22 24L22 25L19 25L19 26L20 26L20 27L18 27L18 28L17 28L17 29L16 29L16 30L15 30L15 29L12 29L12 27L13 27L13 26L11 26L11 24L6 24L6 25L8 25L8 27L9 27L9 25L10 25L10 27L11 27L11 28L10 28L10 30L11 30L11 29L12 29L12 30L13 30L13 31L12 31L12 33L13 33L13 32L14 32L14 33L18 33L18 32L14 32L14 31L16 31L16 30L17 30L17 31L18 31L18 30L20 30L20 28L22 28L22 29L23 29L23 30L22 30L22 31L20 31L20 33L21 33L21 32L22 32L22 33L25 33L25 32L27 32L27 33L28 33L28 32L27 32L27 30L29 30L29 32L31 32L31 33L32 33L32 32L31 32L31 31L30 31L30 30L33 30L33 28L31 28L31 27L32 27L32 26L33 26L33 24L32 24L32 26L31 26L31 27L30 27L30 25L29 25L29 24L31 24L31 23L32 23L32 22L33 22L33 21L32 21L32 20L31 20L31 19L32 19L32 18L33 18L33 17L32 17L32 16L31 16L31 15L32 15L32 14L33 14L33 13L31 13L31 15L30 15L30 13L29 13L29 12L28 12L28 11L29 11L29 10L28 10L28 11L27 11L27 12L28 12L28 13L29 13L29 14L28 14L28 16L27 16L27 13L26 13L26 14L25 14L25 16L24 16L24 15L23 15L23 16L22 16L22 14L24 14L24 13L25 13L25 11L26 11L26 10L27 10L27 9L28 9L28 8L27 8L27 9L26 9L26 8L24 8L24 9L23 9L23 10L22 10L22 11L21 11L21 12L22 12L22 13L20 13L20 12L19 12L19 11L18 11L18 12L17 12L17 10L15 10L15 11L14 11L14 12L15 12L15 11L16 11L16 12L17 12L17 13L16 13L16 14L15 14L15 13L12 13L12 11L13 11L13 10L11 10L11 11L10 11L10 9L11 9L11 8L6 8L6 9L8 9L8 11L7 11L7 10L5 10L5 13L4 13L4 12L3 12L3 11L2 11L2 10L1 10L1 9L5 9L5 8ZM29 8L29 9L30 9L30 8ZM31 8L31 10L33 10L33 9L32 9L32 8ZM24 9L24 10L23 10L23 12L24 12L24 10L25 10L25 9ZM1 11L1 13L2 13L2 14L3 14L3 16L4 16L4 17L3 17L3 20L4 20L4 21L5 21L5 20L7 20L7 19L5 19L5 18L9 18L9 17L10 17L10 16L11 16L11 18L13 18L13 19L12 19L12 21L15 21L15 22L16 22L16 21L15 21L15 20L14 20L14 19L15 19L15 18L16 18L16 17L17 17L17 16L18 16L18 17L20 17L20 16L21 16L21 17L22 17L22 19L23 19L23 20L24 20L24 19L27 19L27 18L28 18L28 19L29 19L29 17L30 17L30 19L31 19L31 16L30 16L30 15L29 15L29 17L27 17L27 16L26 16L26 17L24 17L24 18L23 18L23 17L22 17L22 16L21 16L21 15L20 15L20 14L18 14L18 15L17 15L17 14L16 14L16 15L17 15L17 16L16 16L16 17L14 17L14 16L15 16L15 15L14 15L14 16L13 16L13 17L12 17L12 15L13 15L13 14L12 14L12 13L11 13L11 12L10 12L10 13L5 13L5 14L3 14L3 13L2 13L2 11ZM6 11L6 12L7 12L7 11ZM30 11L30 12L31 12L31 11ZM10 13L10 14L9 14L9 15L10 15L10 14L11 14L11 13ZM5 14L5 15L4 15L4 16L6 16L6 17L7 17L7 16L8 16L8 17L9 17L9 16L8 16L8 15L7 15L7 14ZM6 15L6 16L7 16L7 15ZM19 15L19 16L20 16L20 15ZM4 17L4 18L5 18L5 17ZM26 17L26 18L27 18L27 17ZM4 19L4 20L5 20L5 19ZM26 20L26 21L27 21L27 22L28 22L28 23L27 23L27 24L28 24L28 23L30 23L30 22L31 22L31 20L29 20L29 21L27 21L27 20ZM0 21L0 25L1 25L1 21ZM6 21L6 22L7 22L7 21ZM29 21L29 22L30 22L30 21ZM2 24L2 25L4 25L4 24ZM16 24L16 26L15 26L15 27L14 27L14 28L16 28L16 27L17 27L17 25L18 25L18 24ZM23 24L23 25L22 25L22 26L24 26L24 24ZM25 25L25 28L28 28L28 25ZM26 26L26 27L27 27L27 26ZM8 28L8 33L10 33L10 31L9 31L9 28ZM18 28L18 29L19 29L19 28ZM23 28L23 29L24 29L24 28ZM29 28L29 30L30 30L30 29L31 29L31 28ZM26 29L26 30L25 30L25 31L22 31L22 32L25 32L25 31L26 31L26 30L27 30L27 29ZM0 0L0 7L7 7L7 0ZM1 1L1 6L6 6L6 1ZM2 2L2 5L5 5L5 2ZM26 0L26 7L33 7L33 0ZM27 1L27 6L32 6L32 1ZM28 2L28 5L31 5L31 2ZM0 26L0 33L7 33L7 26ZM1 27L1 32L6 32L6 27ZM2 28L2 31L5 31L5 28Z" fill="#000000"/></g></g></svg>
