<?xml version="1.0" encoding="UTF-8"?>
<svg xmlns="http://www.w3.org/2000/svg" version="1.1" width="80" height="80" viewBox="0 0 80 80"><rect x="0" y="0" width="80" height="80" fill="#ffffff"/><g transform="scale(2.963)"><g transform="translate(1,1)"><path fill-rule="evenodd" d="M11 0L11 2L12 2L12 3L11 3L11 5L10 5L10 3L9 3L9 2L10 2L10 1L8 1L8 3L9 3L9 4L8 4L8 8L6 8L6 9L5 9L5 10L4 10L4 8L3 8L3 9L2 9L2 8L0 8L0 9L2 9L2 10L1 10L1 11L2 11L2 13L3 13L3 14L2 14L2 15L1 15L1 14L0 14L0 15L1 15L1 16L0 16L0 17L2 17L2 16L3 16L3 17L4 17L4 16L5 16L5 17L8 17L8 19L9 19L9 20L10 20L10 21L12 21L12 23L11 23L11 22L9 22L9 21L8 21L8 22L9 22L9 23L8 23L8 25L9 25L9 23L11 23L11 24L10 24L10 25L12 25L12 23L13 23L13 25L14 25L14 23L15 23L15 25L17 25L17 21L19 21L19 22L20 22L20 23L21 23L21 24L22 24L22 23L21 23L21 21L22 21L22 20L25 20L25 16L24 16L24 15L25 15L25 12L24 12L24 11L25 11L25 9L24 9L24 8L22 8L22 9L21 9L21 8L18 8L18 11L17 11L17 16L16 16L16 15L15 15L15 14L14 14L14 12L15 12L15 11L14 11L14 10L15 10L15 8L16 8L16 10L17 10L17 8L16 8L16 7L17 7L17 6L16 6L16 4L15 4L15 3L16 3L16 0L14 0L14 1L15 1L15 2L14 2L14 4L13 4L13 2L12 2L12 1L13 1L13 0ZM14 4L14 6L13 6L13 8L14 8L14 6L15 6L15 7L16 7L16 6L15 6L15 4ZM9 5L9 8L8 8L8 9L6 9L6 10L7 10L7 11L5 11L5 12L7 12L7 13L5 13L5 14L7 14L7 15L5 15L5 16L7 16L7 15L9 15L9 13L10 13L10 16L9 16L9 17L12 17L12 16L11 16L11 14L12 14L12 13L10 13L10 12L8 12L8 11L13 11L13 9L12 9L12 5L11 5L11 8L10 8L10 5ZM9 9L9 10L10 10L10 9ZM19 9L19 11L20 11L20 10L21 10L21 12L19 12L19 13L20 13L20 14L18 14L18 16L21 16L21 20L22 20L22 19L23 19L23 18L22 18L22 16L23 16L23 17L24 17L24 16L23 16L23 15L24 15L24 14L23 14L23 15L21 15L21 14L22 14L22 13L24 13L24 12L23 12L23 11L22 11L22 10L24 10L24 9L22 9L22 10L21 10L21 9ZM0 12L0 13L1 13L1 12ZM3 12L3 13L4 13L4 12ZM3 15L3 16L4 16L4 15ZM13 16L13 17L14 17L14 18L15 18L15 17L16 17L16 16ZM17 17L17 20L20 20L20 17ZM9 18L9 19L12 19L12 20L15 20L15 21L13 21L13 22L16 22L16 19L13 19L13 18ZM18 18L18 19L19 19L19 18ZM24 22L24 23L25 23L25 22ZM19 24L19 25L20 25L20 24ZM23 24L23 25L25 25L25 24ZM0 0L0 7L7 7L7 0ZM1 1L1 6L6 6L6 1ZM2 2L2 5L5 5L5 2ZM18 0L18 7L25 7L25 0ZM19 1L19 6L24 6L24 1ZM20 2L20 5L23 5L23 2ZM0 18L0 25L7 25L7 18ZM1 19L1 24L6 24L6 19ZM2 20L2 23L5 23L5 20Z" fill="#000000"/></g></g></svg>
