<?xml version="1.0" encoding="UTF-8"?>
<svg xmlns="http://www.w3.org/2000/svg" version="1.1" width="80" height="80" viewBox="0 0 80 80"><rect x="0" y="0" width="80" height="80" fill="#ffffff"/><g transform="scale(2.963)"><g transform="translate(1,1)"><path fill-rule="evenodd" d="M8 0L8 1L11 1L11 3L10 3L10 2L9 2L9 3L10 3L10 5L9 5L9 6L8 6L8 8L9 8L9 9L10 9L10 10L6 10L6 11L5 11L5 10L4 10L4 11L3 11L3 13L4 13L4 15L3 15L3 14L2 14L2 13L1 13L1 12L2 12L2 11L1 11L1 10L0 10L0 17L1 17L1 15L2 15L2 17L3 17L3 16L4 16L4 15L5 15L5 16L6 16L6 17L8 17L8 18L9 18L9 19L10 19L10 17L9 17L9 16L10 16L10 14L11 14L11 12L9 12L9 11L10 11L10 10L11 10L11 9L10 9L10 7L11 7L11 6L12 6L12 9L14 9L14 12L13 12L13 13L12 13L12 14L13 14L13 13L15 13L15 14L14 14L14 15L12 15L12 16L11 16L11 18L12 18L12 19L11 19L11 20L10 20L10 21L9 21L9 20L8 20L8 22L10 22L10 23L8 23L8 25L9 25L9 24L10 24L10 25L14 25L14 19L15 19L15 22L16 22L16 23L17 23L17 24L16 24L16 25L18 25L18 24L21 24L21 25L22 25L22 24L24 24L24 25L25 25L25 20L24 20L24 21L21 21L21 20L22 20L22 17L25 17L25 14L22 14L22 12L23 12L23 13L25 13L25 10L24 10L24 9L25 9L25 8L24 8L24 9L22 9L22 10L21 10L21 9L19 9L19 8L18 8L18 9L17 9L17 5L16 5L16 8L15 8L15 4L17 4L17 3L14 3L14 2L15 2L15 1L14 1L14 0L13 0L13 1L12 1L12 0ZM16 0L16 2L17 2L17 0ZM13 1L13 2L12 2L12 4L14 4L14 3L13 3L13 2L14 2L14 1ZM10 5L10 6L9 6L9 7L10 7L10 6L11 6L11 5ZM12 5L12 6L13 6L13 8L14 8L14 6L13 6L13 5ZM0 8L0 9L2 9L2 10L3 10L3 9L5 9L5 8L3 8L3 9L2 9L2 8ZM6 8L6 9L7 9L7 8ZM16 9L16 11L17 11L17 12L16 12L16 13L17 13L17 14L16 14L16 15L15 15L15 16L13 16L13 17L12 17L12 18L15 18L15 19L16 19L16 17L15 17L15 16L16 16L16 15L17 15L17 16L18 16L18 15L19 15L19 14L20 14L20 15L22 15L22 14L20 14L20 13L21 13L21 11L17 11L17 9ZM18 9L18 10L19 10L19 9ZM12 10L12 11L13 11L13 10ZM23 10L23 12L24 12L24 10ZM6 11L6 12L4 12L4 13L5 13L5 15L6 15L6 16L7 16L7 15L8 15L8 16L9 16L9 14L10 14L10 13L9 13L9 12L8 12L8 11ZM6 12L6 13L7 13L7 12ZM18 12L18 13L20 13L20 12ZM8 13L8 14L9 14L9 13ZM6 14L6 15L7 15L7 14ZM23 15L23 16L24 16L24 15ZM17 17L17 20L20 20L20 17ZM18 18L18 19L19 19L19 18ZM24 18L24 19L25 19L25 18ZM12 19L12 21L10 21L10 22L12 22L12 23L13 23L13 22L12 22L12 21L13 21L13 19ZM16 21L16 22L17 22L17 21ZM19 21L19 22L18 22L18 23L19 23L19 22L21 22L21 21ZM22 22L22 23L21 23L21 24L22 24L22 23L23 23L23 22ZM0 0L0 7L7 7L7 0ZM1 1L1 6L6 6L6 1ZM2 2L2 5L5 5L5 2ZM18 0L18 7L25 7L25 0ZM19 1L19 6L24 6L24 1ZM20 2L20 5L23 5L23 2ZM0 18L0 25L7 25L7 18ZM1 19L1 24L6 24L6 19ZM2 20L2 23L5 23L5 20Z" fill="#000000"/></g></g></svg>
