<?xml version="1.0" encoding="UTF-8"?>
<svg xmlns="http://www.w3.org/2000/svg" version="1.1" width="80" height="80" viewBox="0 0 80 80"><rect x="0" y="0" width="80" height="80" fill="#ffffff"/><g transform="scale(2.286)"><g transform="translate(1,1)"><path fill-rule="evenodd" d="M12 0L12 3L8 3L8 4L9 4L9 5L8 5L8 7L9 7L9 8L6 8L6 9L5 9L5 8L0 8L0 9L2 9L2 10L0 10L0 11L2 11L2 10L3 10L3 11L4 11L4 10L6 10L6 11L5 11L5 12L2 12L2 13L0 13L0 14L1 14L1 15L3 15L3 14L4 14L4 16L1 16L1 18L2 18L2 19L3 19L3 20L4 20L4 21L5 21L5 22L6 22L6 23L8 23L8 21L9 21L9 22L12 22L12 21L14 21L14 23L15 23L15 24L13 24L13 23L12 23L12 25L11 25L11 23L10 23L10 24L8 24L8 27L9 27L9 28L8 28L8 33L9 33L9 32L10 32L10 33L15 33L15 32L13 32L13 31L14 31L14 30L15 30L15 31L16 31L16 32L17 32L17 33L19 33L19 31L18 31L18 32L17 32L17 29L18 29L18 28L22 28L22 29L23 29L23 30L21 30L21 29L19 29L19 30L20 30L20 32L22 32L22 33L28 33L28 32L22 32L22 31L24 31L24 29L25 29L25 30L26 30L26 31L27 31L27 30L29 30L29 32L31 32L31 33L32 33L32 32L31 32L31 31L32 31L32 30L31 30L31 29L30 29L30 30L29 30L29 28L32 28L32 29L33 29L33 27L32 27L32 26L33 26L33 24L32 24L32 26L31 26L31 27L30 27L30 25L29 25L29 24L31 24L31 23L32 23L32 22L33 22L33 21L32 21L32 20L31 20L31 19L32 19L32 18L33 18L33 17L32 17L32 16L31 16L31 15L32 15L32 14L33 14L33 13L31 13L31 15L30 15L30 13L29 13L29 12L28 12L28 11L29 11L29 10L28 10L28 11L27 11L27 12L28 12L28 13L29 13L29 14L28 14L28 16L27 16L27 13L26 13L26 14L25 14L25 16L24 16L24 15L23 15L23 14L24 14L24 13L25 13L25 11L26 11L26 10L27 10L27 9L28 9L28 8L27 8L27 9L26 9L26 8L24 8L24 7L25 7L25 6L24 6L24 7L23 7L23 6L22 6L22 7L21 7L21 6L20 6L20 7L19 7L19 6L18 6L18 5L23 5L23 4L25 4L25 1L24 1L24 0L23 0L23 1L22 1L22 0L18 0L18 1L20 1L20 2L19 2L19 3L17 3L17 4L16 4L16 2L17 2L17 0L16 0L16 1L15 1L15 0L14 0L14 1L13 1L13 0ZM8 1L8 2L9 2L9 1ZM10 1L10 2L11 2L11 1ZM14 1L14 2L13 2L13 3L12 3L12 4L13 4L13 7L12 7L12 5L11 5L11 4L10 4L10 6L9 6L9 7L10 7L10 6L11 6L11 7L12 7L12 8L10 8L10 9L6 9L6 10L9 10L9 11L6 11L6 12L7 12L7 13L6 13L6 14L7 14L7 13L8 13L8 14L9 14L9 15L5 15L5 16L7 16L7 17L2 17L2 18L3 18L3 19L4 19L4 20L5 20L5 18L7 18L7 17L8 17L8 16L9 16L9 15L10 15L10 14L11 14L11 15L12 15L12 16L14 16L14 15L15 15L15 14L16 14L16 16L15 16L15 18L16 18L16 17L17 17L17 18L19 18L19 19L20 19L20 18L19 18L19 16L20 16L20 17L21 17L21 19L22 19L22 18L23 18L23 21L22 21L22 20L20 20L20 21L22 21L22 22L21 22L21 23L20 23L20 22L18 22L18 21L19 21L19 20L18 20L18 19L15 19L15 20L18 20L18 21L17 21L17 23L16 23L16 25L14 25L14 26L16 26L16 27L17 27L17 28L16 28L16 29L15 29L15 30L16 30L16 29L17 29L17 28L18 28L18 27L20 27L20 26L18 26L18 27L17 27L17 26L16 26L16 25L17 25L17 24L18 24L18 25L19 25L19 24L20 24L20 25L21 25L21 27L22 27L22 26L24 26L24 25L22 25L22 24L21 24L21 23L23 23L23 24L26 24L26 23L27 23L27 24L28 24L28 23L30 23L30 22L31 22L31 20L29 20L29 21L27 21L27 18L28 18L28 19L29 19L29 17L30 17L30 19L31 19L31 16L30 16L30 15L29 15L29 17L27 17L27 16L26 16L26 18L25 18L25 17L24 17L24 16L21 16L21 14L19 14L19 15L18 15L18 13L22 13L22 14L23 14L23 13L22 13L22 12L20 12L20 10L19 10L19 9L20 9L20 8L21 8L21 11L22 11L22 10L23 10L23 12L24 12L24 11L25 11L25 9L24 9L24 10L23 10L23 9L22 9L22 8L23 8L23 7L22 7L22 8L21 8L21 7L20 7L20 8L19 8L19 7L18 7L18 6L17 6L17 8L16 8L16 6L15 6L15 7L14 7L14 5L16 5L16 4L13 4L13 3L15 3L15 1ZM23 1L23 3L24 3L24 1ZM20 3L20 4L22 4L22 3ZM13 8L13 9L10 9L10 11L11 11L11 12L8 12L8 13L9 13L9 14L10 14L10 13L11 13L11 14L13 14L13 13L16 13L16 14L17 14L17 13L18 13L18 12L19 12L19 10L18 10L18 12L17 12L17 13L16 13L16 12L15 12L15 11L16 11L16 10L17 10L17 9L18 9L18 8L17 8L17 9L16 9L16 10L14 10L14 8ZM29 8L29 9L30 9L30 8ZM31 8L31 10L33 10L33 9L32 9L32 8ZM11 10L11 11L12 11L12 12L14 12L14 11L13 11L13 10ZM30 11L30 12L31 12L31 11ZM4 13L4 14L5 14L5 13ZM10 16L10 17L9 17L9 19L8 19L8 20L7 20L7 19L6 19L6 20L7 20L7 21L6 21L6 22L7 22L7 21L8 21L8 20L11 20L11 21L12 21L12 20L14 20L14 17L12 17L12 18L11 18L11 19L10 19L10 17L11 17L11 16ZM17 16L17 17L18 17L18 16ZM23 17L23 18L24 18L24 17ZM12 18L12 19L13 19L13 18ZM25 19L25 20L24 20L24 21L23 21L23 22L24 22L24 23L25 23L25 22L26 22L26 19ZM0 20L0 25L1 25L1 22L2 22L2 23L3 23L3 24L2 24L2 25L5 25L5 23L4 23L4 22L2 22L2 20ZM15 21L15 22L16 22L16 21ZM24 21L24 22L25 22L25 21ZM29 21L29 22L30 22L30 21ZM27 22L27 23L28 23L28 22ZM6 24L6 25L7 25L7 24ZM9 25L9 27L10 27L10 25ZM12 25L12 26L11 26L11 27L12 27L12 26L13 26L13 25ZM25 25L25 28L28 28L28 25ZM26 26L26 27L27 27L27 26ZM13 27L13 28L12 28L12 30L11 30L11 28L10 28L10 30L11 30L11 31L10 31L10 32L12 32L12 31L13 31L13 30L14 30L14 29L13 29L13 28L14 28L14 27ZM23 28L23 29L24 29L24 28ZM26 29L26 30L27 30L27 29ZM30 30L30 31L31 31L31 30ZM0 0L0 7L7 7L7 0ZM1 1L1 6L6 6L6 1ZM2 2L2 5L5 5L5 2ZM26 0L26 7L33 7L33 0ZM27 1L27 6L32 6L32 1ZM28 2L28 5L31 5L31 2ZM0 26L0 33L7 33L7 26ZM1 27L1 32L6 32L6 27ZM2 28L2 31L5 31L5 28Z" fill="#000000"/></g></g></svg>
