<?xml version="1.0" encoding="UTF-8"?>
<svg xmlns="http://www.w3.org/2000/svg" version="1.1" width="80" height="80" viewBox="0 0 80 80"><rect x="0" y="0" width="80" height="80" fill="#ffffff"/><g transform="scale(2.286)"><g transform="translate(1,1)"><path fill-rule="evenodd" d="M10 0L10 2L11 2L11 0ZM12 0L12 1L13 1L13 2L12 2L12 4L13 4L13 3L14 3L14 4L15 4L15 5L17 5L17 4L19 4L19 5L20 5L20 7L21 7L21 8L20 8L20 9L19 9L19 6L18 6L18 8L17 8L17 6L16 6L16 9L12 9L12 7L13 7L13 5L11 5L11 6L10 6L10 4L11 4L11 3L8 3L8 4L9 4L9 5L8 5L8 7L9 7L9 8L6 8L6 9L10 9L10 11L11 11L11 9L12 9L12 10L13 10L13 11L12 11L12 13L13 13L13 12L14 12L14 13L15 13L15 14L18 14L18 16L17 16L17 15L16 15L16 16L17 16L17 17L19 17L19 18L20 18L20 16L22 16L22 17L21 17L21 18L22 18L22 17L23 17L23 18L24 18L24 17L26 17L26 18L25 18L25 20L24 20L24 19L23 19L23 20L22 20L22 19L19 19L19 20L17 20L17 19L16 19L16 17L12 17L12 15L13 15L13 14L8 14L8 12L9 12L9 13L11 13L11 12L9 12L9 10L5 10L5 11L4 11L4 13L3 13L3 10L2 10L2 9L5 9L5 8L0 8L0 10L1 10L1 11L0 11L0 13L1 13L1 14L0 14L0 17L1 17L1 16L2 16L2 18L0 18L0 20L1 20L1 21L0 21L0 25L1 25L1 21L2 21L2 24L3 24L3 25L5 25L5 24L3 24L3 23L5 23L5 22L6 22L6 23L8 23L8 24L9 24L9 25L8 25L8 27L9 27L9 28L8 28L8 33L10 33L10 31L11 31L11 33L12 33L12 31L13 31L13 30L10 30L10 29L11 29L11 28L10 28L10 27L11 27L11 25L12 25L12 26L13 26L13 27L12 27L12 29L13 29L13 28L14 28L14 29L16 29L16 30L15 30L15 31L14 31L14 32L15 32L15 31L16 31L16 32L17 32L17 33L26 33L26 31L27 31L27 32L28 32L28 31L27 31L27 30L29 30L29 28L31 28L31 30L30 30L30 31L29 31L29 33L30 33L30 32L31 32L31 33L32 33L32 32L31 32L31 30L33 30L33 29L32 29L32 28L33 28L33 27L32 27L32 26L30 26L30 25L31 25L31 24L33 24L33 23L31 23L31 22L33 22L33 19L32 19L32 17L33 17L33 16L31 16L31 15L32 15L32 14L33 14L33 12L32 12L32 13L31 13L31 14L30 14L30 13L29 13L29 12L31 12L31 11L32 11L32 10L33 10L33 9L32 9L32 8L31 8L31 9L30 9L30 8L29 8L29 9L30 9L30 10L28 10L28 11L27 11L27 10L26 10L26 8L25 8L25 5L24 5L24 4L25 4L25 3L24 3L24 2L23 2L23 1L24 1L24 0L23 0L23 1L22 1L22 0L21 0L21 1L20 1L20 0L19 0L19 1L16 1L16 0ZM8 1L8 2L9 2L9 1ZM19 1L19 2L16 2L16 4L17 4L17 3L19 3L19 4L20 4L20 5L22 5L22 4L20 4L20 3L19 3L19 2L20 2L20 1ZM14 2L14 3L15 3L15 2ZM23 5L23 7L22 7L22 6L21 6L21 7L22 7L22 8L21 8L21 9L20 9L20 10L19 10L19 9L18 9L18 10L17 10L17 9L16 9L16 10L17 10L17 11L16 11L16 13L17 13L17 12L19 12L19 13L18 13L18 14L19 14L19 15L20 15L20 14L21 14L21 13L22 13L22 12L23 12L23 13L24 13L24 14L23 14L23 16L24 16L24 14L25 14L25 15L28 15L28 16L29 16L29 15L28 15L28 14L29 14L29 13L28 13L28 12L29 12L29 11L28 11L28 12L27 12L27 11L25 11L25 8L23 8L23 7L24 7L24 5ZM9 6L9 7L10 7L10 6ZM11 6L11 7L12 7L12 6ZM14 6L14 8L15 8L15 6ZM10 8L10 9L11 9L11 8ZM22 8L22 9L21 9L21 12L20 12L20 11L19 11L19 10L18 10L18 11L19 11L19 12L20 12L20 13L19 13L19 14L20 14L20 13L21 13L21 12L22 12L22 10L24 10L24 9L23 9L23 8ZM27 8L27 9L28 9L28 8ZM31 9L31 10L32 10L32 9ZM6 11L6 12L7 12L7 11ZM14 11L14 12L15 12L15 11ZM24 12L24 13L26 13L26 14L27 14L27 13L26 13L26 12ZM4 13L4 14L3 14L3 18L2 18L2 19L4 19L4 20L5 20L5 21L6 21L6 22L7 22L7 21L6 21L6 20L8 20L8 21L9 21L9 20L10 20L10 22L9 22L9 24L10 24L10 25L11 25L11 24L10 24L10 23L11 23L11 22L13 22L13 23L12 23L12 25L15 25L15 26L16 26L16 28L19 28L19 29L17 29L17 30L16 30L16 31L17 31L17 32L18 32L18 30L19 30L19 32L20 32L20 31L23 31L23 32L25 32L25 31L26 31L26 30L27 30L27 29L26 29L26 30L25 30L25 29L24 29L24 28L23 28L23 29L22 29L22 28L21 28L21 26L22 26L22 27L23 27L23 26L24 26L24 25L22 25L22 24L24 24L24 23L25 23L25 24L29 24L29 23L30 23L30 21L32 21L32 19L31 19L31 20L30 20L30 21L27 21L27 20L28 20L28 18L29 18L29 19L30 19L30 17L31 17L31 16L30 16L30 17L27 17L27 16L26 16L26 17L27 17L27 20L26 20L26 21L24 21L24 22L23 22L23 21L22 21L22 20L19 20L19 21L17 21L17 20L16 20L16 19L14 19L14 20L13 20L13 21L12 21L12 19L13 19L13 18L12 18L12 17L10 17L10 18L9 18L9 20L8 20L8 19L6 19L6 18L8 18L8 17L9 17L9 16L11 16L11 15L9 15L9 16L8 16L8 17L6 17L6 16L7 16L7 15L8 15L8 14L7 14L7 13L6 13L6 14L5 14L5 13ZM6 14L6 15L5 15L5 16L6 16L6 15L7 15L7 14ZM14 15L14 16L15 16L15 15ZM4 18L4 19L5 19L5 18ZM10 18L10 20L11 20L11 18ZM14 20L14 21L16 21L16 22L15 22L15 23L14 23L14 24L15 24L15 25L16 25L16 26L17 26L17 27L19 27L19 26L21 26L21 25L19 25L19 24L17 24L17 23L16 23L16 22L17 22L17 21L16 21L16 20ZM19 21L19 22L21 22L21 23L20 23L20 24L22 24L22 23L23 23L23 22L21 22L21 21ZM26 21L26 22L25 22L25 23L28 23L28 22L27 22L27 21ZM6 24L6 25L7 25L7 24ZM16 24L16 25L17 25L17 26L19 26L19 25L17 25L17 24ZM25 25L25 28L28 28L28 25ZM26 26L26 27L27 27L27 26ZM29 26L29 27L30 27L30 26ZM14 27L14 28L15 28L15 27ZM9 28L9 29L10 29L10 28ZM20 28L20 29L19 29L19 30L22 30L22 29L21 29L21 28ZM23 29L23 31L25 31L25 30L24 30L24 29ZM9 30L9 31L10 31L10 30ZM0 0L0 7L7 7L7 0ZM1 1L1 6L6 6L6 1ZM2 2L2 5L5 5L5 2ZM26 0L26 7L33 7L33 0ZM27 1L27 6L32 6L32 1ZM28 2L28 5L31 5L31 2ZM0 26L0 33L7 33L7 26ZM1 27L1 32L6 32L6 27ZM2 28L2 31L5 31L5 28Z" fill="#000000"/></g></g></svg>
